<svg xmlns="http://www.w3.org/2000/svg" width="29.812" height="29.821" viewBox="0 0 29.812 29.821">
  <g id="email" transform="translate(0 0)">
    <g id="Grupo_29" data-name="Grupo 29" transform="translate(0.008 0)">
      <g id="Grupo_28" data-name="Grupo 28" transform="translate(0 0)">
        <path id="Trazado_40" data-name="Trazado 40" d="M29.07,9.951l-9.2-9.2a2.556,2.556,0,0,0-3.61,0L1.914,15.107a2.556,2.556,0,0,0,0,3.61l2.307,2.307L1.688,23.557a.583.583,0,1,0,.824.824l2.534-2.534L6.1,22.9.172,28.83A.583.583,0,0,0,1,29.654l5.927-5.927,4.186,4.186a2.556,2.556,0,0,0,3.61,0L29.07,13.562a2.556,2.556,0,0,0,0-3.61ZM12.491,27.428a1.377,1.377,0,0,1-.558-.341l-9.2-9.2a1.388,1.388,0,0,1-.358-1.342H12.491ZM10.386,15.387l1.727-1.727a.583.583,0,0,0-.824-.824L8.739,15.387h-1.7l5.265-5.265a.583.583,0,0,0-.824-.824L5.4,15.387H3.281L16.544,2.123V14a1.389,1.389,0,0,1-1.388,1.388Zm17.86-2.649L13.9,27.091a1.385,1.385,0,0,1-.24.191V16.552h1.5A2.556,2.556,0,0,0,17.712,14V12.5h6.675l-3.37,3.37a.583.583,0,1,0,.824.824L26.034,12.5h2.407a1.4,1.4,0,0,1-.2.239ZM17.71,11.331V1.222a1.388,1.388,0,0,1,1.342.358l9.2,9.2a1.38,1.38,0,0,1,.341.558Z" transform="translate(-0.012 -0.01)" fill="#fff"/>
      </g>
    </g>
    <g id="Grupo_31" data-name="Grupo 31" transform="translate(12.736 7.694)">
      <g id="Grupo_30" data-name="Grupo 30" transform="translate(0 0)">
        <path id="Trazado_41" data-name="Trazado 41" d="M219.714,132.29a.582.582,0,1,0,.17.411A.582.582,0,0,0,219.714,132.29Z" transform="translate(-218.721 -132.12)" fill="#fff"/>
      </g>
    </g>
    <g id="Grupo_33" data-name="Grupo 33" transform="translate(0 24.889)">
      <g id="Grupo_32" data-name="Grupo 32" transform="translate(0 0)">
        <path id="Trazado_42" data-name="Trazado 42" d="M1.034,427.59A.582.582,0,1,0,1.2,428a.582.582,0,0,0-.171-.412Z" transform="translate(-0.04 -427.419)" fill="#fff"/>
      </g>
    </g>
    <g id="Grupo_35" data-name="Grupo 35" transform="translate(3.747 26.005)">
      <g id="Grupo_34" data-name="Grupo 34" transform="translate(0 0)">
        <path id="Trazado_43" data-name="Trazado 43" d="M68.166,446.738a.583.583,0,0,0-.824,0L64.7,449.379a.583.583,0,1,0,.824.824l2.641-2.641A.583.583,0,0,0,68.166,446.738Z" transform="translate(-64.52 -446.568)" fill="#fff"/>
      </g>
    </g>
  </g>
</svg>
