<svg xmlns="http://www.w3.org/2000/svg" width="48.486" height="48" viewBox="0 0 48.486 48">
  <g id="Grupo_179" data-name="Grupo 179" transform="translate(1628 -3051)">
    <path id="Sin_título-1_copia" data-name="Sin título-1 copia" d="M17.273,0C27.022.216,35.1,8.539,35.308,18.6s-7.52,18.037-17.269,17.825S.216,27.886,0,17.829,7.524-.207,17.273,0Z" transform="matrix(-0.454, 0.891, -0.891, -0.454, -1579.514, 3067.537)" fill="#fff"/>
    <g id="Grupo_174" data-name="Grupo 174" transform="translate(-0.834 0.383)">
      <path id="Trazado_87" data-name="Trazado 87" d="M18.331,5.354a6.744,6.744,0,0,0-.417-2.209A4.451,4.451,0,0,0,16.877,1.53,4.407,4.407,0,0,0,15.29.48,6.482,6.482,0,0,0,13.115.057C12.155.011,11.851,0,9.416,0S6.677.011,5.72.053A6.467,6.467,0,0,0,3.545.477,4.369,4.369,0,0,0,1.955,1.53,4.491,4.491,0,0,0,.921,3.141,6.762,6.762,0,0,0,.5,5.35C.459,6.325.449,6.634.449,9.107S.459,11.888.5,12.859a6.744,6.744,0,0,0,.417,2.209,4.5,4.5,0,0,0,1.037,1.615,4.407,4.407,0,0,0,1.587,1.049,6.483,6.483,0,0,0,2.175.423c.956.043,1.261.053,3.7.053s2.739-.011,3.7-.053a6.463,6.463,0,0,0,2.175-.423,4.623,4.623,0,0,0,2.624-2.664,6.767,6.767,0,0,0,.417-2.209c.042-.971.053-1.281.053-3.753s0-2.782-.046-3.753Zm-1.615,7.435a5.059,5.059,0,0,1-.308,1.69,3,3,0,0,1-1.7,1.729,4.867,4.867,0,0,1-1.664.313c-.946.043-1.229.053-3.622.053S6.74,16.563,5.8,16.52a4.847,4.847,0,0,1-1.664-.313,2.755,2.755,0,0,1-1.03-.679,2.836,2.836,0,0,1-.669-1.046,5.077,5.077,0,0,1-.308-1.69c-.042-.96-.053-1.249-.053-3.678s.01-2.721.053-3.678a5.056,5.056,0,0,1,.308-1.69A2.772,2.772,0,0,1,3.107,2.7a2.78,2.78,0,0,1,1.03-.679A4.87,4.87,0,0,1,5.8,1.708c.946-.043,1.23-.053,3.622-.053s2.68.011,3.622.053a4.85,4.85,0,0,1,1.664.313,2.753,2.753,0,0,1,1.03.679,2.835,2.835,0,0,1,.669,1.046,5.079,5.079,0,0,1,.308,1.69c.042.96.053,1.249.053,3.678s-.011,2.714-.053,3.675Zm0,0" transform="translate(-1612.615 3065.617)" fill="#01d19d"/>
      <path id="Trazado_88" data-name="Trazado 88" d="M129.555,124.5a4.678,4.678,0,1,0,4.606,4.678A4.644,4.644,0,0,0,129.555,124.5Zm0,7.712a3.035,3.035,0,1,1,2.988-3.034A3.012,3.012,0,0,1,129.555,132.212Zm0,0" transform="translate(-1732.754 2945.545)" fill="#01d19d"/>
      <path id="Trazado_89" data-name="Trazado 89" d="M364.6,89.694a1.076,1.076,0,1,1-1.075-1.092A1.084,1.084,0,0,1,364.6,89.694Zm0,0" transform="translate(-1961.935 2980.167)" fill="#01d19d"/>
    </g>
  </g>
</svg>
