<?xml version="1.0" encoding="utf-8"?>
<!-- Generator: Adobe Illustrator 25.0.0, SVG Export Plug-In . SVG Version: 6.00 Build 0)  -->
<svg version="1.1" id="Capa_1" xmlns="http://www.w3.org/2000/svg" xmlns:xlink="http://www.w3.org/1999/xlink" x="0px" y="0px"
	 viewBox="0 0 35 35" style="enable-background:new 0 0 35 35;" xml:space="preserve">
<style type="text/css">
	.st0{fill:#FFFFFF;}
	.st1{enable-background:new    ;}
	.st2{fill:#01D19D;}
</style>
<g>
	<circle class="st0" cx="17.5" cy="17.5" r="17.5"/>
	<g class="st1">
		<path class="st2" d="M11,13.1L11,13.1c-1.3,0-2.1-0.8-2.1-1.9S9.7,9.4,11,9.4s2,0.8,2.1,1.9C13.1,12.2,12.3,13.1,11,13.1z
			 M12.8,25.6H9.1v-11h3.7V25.6z M26.1,25.6h-3.7v-5.9c0-1.5-0.5-2.5-1.9-2.5c-1,0-1.6,0.7-1.9,1.3c-0.1,0.2-0.1,0.6-0.1,0.9v6.2
			h-3.7c0-10,0-11.1,0-11.1h3.7v1.6l0,0c0.5-0.8,1.3-1.9,3.3-1.9c2.4,0,4.2,1.6,4.2,5v6.4H26.1z"/>
	</g>
</g>
</svg>
