<svg xmlns="http://www.w3.org/2000/svg" xmlns:xlink="http://www.w3.org/1999/xlink" width="266" height="49" viewBox="0 0 266 49">
  <defs>
    <clipPath id="clip-path">
      <rect id="Rectángulo_28" data-name="Rectángulo 28" width="208" height="41" transform="translate(0 3)" fill="none"/>
    </clipPath>
  </defs>
  <g id="Grupo_180" data-name="Grupo 180" transform="translate(780 1165)">
    <g id="Grupo_176" data-name="Grupo 176" transform="translate(1102 -41)">
      <g id="Grupo_174" data-name="Grupo 174" transform="translate(-2008 -1162)">
        <g id="Grupo_175" data-name="Grupo 175" transform="translate(0 9)">
          <path id="Elipse_4" data-name="Elipse 4" d="M24.5,0A24.5,24.5,0,1,1,0,24.5,24.5,24.5,0,0,1,24.5,0Z" transform="translate(126 29)" fill="#1c1f4a"/>
          <path id="C" d="M20.64-6.782a5.725,5.725,0,0,1-.505,2.219,8.005,8.005,0,0,1-1.589,2.344A8.109,8.109,0,0,1,15.776-.352a9.952,9.952,0,0,1-3.926.718A13.719,13.719,0,0,1,8.76.044a8.682,8.682,0,0,1-2.527-1A8.525,8.525,0,0,1,4.146-2.754,10.664,10.664,0,0,1,2.7-5.017a11.8,11.8,0,0,1-.9-2.673,14.571,14.571,0,0,1-.3-3.018,13.386,13.386,0,0,1,.754-4.644A9.9,9.9,0,0,1,4.409-18.86a9.424,9.424,0,0,1,3.3-2.219,10.672,10.672,0,0,1,4.028-.762,10.065,10.065,0,0,1,4.644,1.04A8.4,8.4,0,0,1,19.5-18.23a5.076,5.076,0,0,1,1.084,2.893,1.886,1.886,0,0,1-.527,1.318,1.672,1.672,0,0,1-1.274.571,1.76,1.76,0,0,1-1.252-.4,5.477,5.477,0,0,1-.93-1.362,6.552,6.552,0,0,0-2-2.388,4.882,4.882,0,0,0-2.834-.791,5.137,5.137,0,0,0-4.27,2.036A9.22,9.22,0,0,0,5.9-10.562a10.745,10.745,0,0,0,.7,4.167A5.261,5.261,0,0,0,8.6-3.911a5.5,5.5,0,0,0,3.018.82,5.3,5.3,0,0,0,3.171-.93,5.619,5.619,0,0,0,1.956-2.732,4.636,4.636,0,0,1,.688-1.384,1.557,1.557,0,0,1,1.318-.535,1.843,1.843,0,0,1,1.333.542A1.8,1.8,0,0,1,20.64-6.782Z" transform="translate(140 65)" fill="#fff"/>
        </g>
      </g>
    </g>
    <path id="ClubFidelización" d="M15.092-14.616a1.956,1.956,0,0,1-.336,1.134,2.671,2.671,0,0,1-.784.77,10.169,10.169,0,0,0-1.582-.84,5.156,5.156,0,0,0-2.03-.364A4.446,4.446,0,0,0,6.86-12.5,5.841,5.841,0,0,0,5.6-8.484,5.563,5.563,0,0,0,6.93-4.438,4.88,4.88,0,0,0,10.584-3.08,5.846,5.846,0,0,0,12.642-3.4a9.208,9.208,0,0,0,1.582-.77,2.592,2.592,0,0,1,.686.854,2.506,2.506,0,0,1,.266,1.162,2.006,2.006,0,0,1-.294,1.05A2.231,2.231,0,0,1,13.86-.28a7.584,7.584,0,0,1-1.512.518A9.869,9.869,0,0,1,10,.476,11.178,11.178,0,0,1,6.5-.056,7.739,7.739,0,0,1,3.668-1.68a7.481,7.481,0,0,1-1.89-2.786,10.678,10.678,0,0,1-.686-4.018,10.158,10.158,0,0,1,.686-3.864A8.1,8.1,0,0,1,3.64-15.162a7.906,7.906,0,0,1,2.744-1.722,9.491,9.491,0,0,1,3.36-.588,7.932,7.932,0,0,1,3.948.812A2.363,2.363,0,0,1,15.092-14.616ZM20.16.2A3.089,3.089,0,0,1,18.354-.21a1.877,1.877,0,0,1-.546-1.582V-18.228a6.65,6.65,0,0,1,.8-.168,7.1,7.1,0,0,1,1.134-.084,3.017,3.017,0,0,1,1.792.42,1.894,1.894,0,0,1,.56,1.6V-.028a6.71,6.71,0,0,1-.812.154A8.184,8.184,0,0,1,20.16.2Zm18.228-3A2.229,2.229,0,0,1,37.24-.784,7.546,7.546,0,0,1,35.028.1,12.256,12.256,0,0,1,32.116.42,10.853,10.853,0,0,1,29.372.1,5.652,5.652,0,0,1,27.258-.924a4.752,4.752,0,0,1-1.372-1.764,6.128,6.128,0,0,1-.49-2.576v-8.148q.308-.084.812-.168a6.842,6.842,0,0,1,1.12-.084,3.008,3.008,0,0,1,1.806.42,1.921,1.921,0,0,1,.546,1.6v6.356a2.25,2.25,0,0,0,.644,1.806,2.734,2.734,0,0,0,1.82.546,4.981,4.981,0,0,0,1.218-.126,3.271,3.271,0,0,0,.742-.266v-10.08a6.727,6.727,0,0,1,.784-.168,6.842,6.842,0,0,1,1.12-.084,3.077,3.077,0,0,1,1.82.42,1.894,1.894,0,0,1,.56,1.6Zm10.36-11.088a7.327,7.327,0,0,1,2.576.448A5.657,5.657,0,0,1,53.41-12.1,6.31,6.31,0,0,1,54.8-9.87a8.707,8.707,0,0,1,.5,3.094,8.4,8.4,0,0,1-.532,3.108,6.159,6.159,0,0,1-1.5,2.254A6.3,6.3,0,0,1,50.946-.042,9.394,9.394,0,0,1,47.908.42,9.614,9.614,0,0,1,44.884,0a8.149,8.149,0,0,1-2.1-1.008,2.466,2.466,0,0,1-1.2-2.128V-18.228q.308-.084.812-.168a6.841,6.841,0,0,1,1.12-.084,3.008,3.008,0,0,1,1.806.42,1.921,1.921,0,0,1,.546,1.6v3.192a7.694,7.694,0,0,1,1.288-.434A6.575,6.575,0,0,1,48.748-13.888Zm-.784,3.36a3.49,3.49,0,0,0-1.162.182,4.848,4.848,0,0,0-.966.462v6.412a2.918,2.918,0,0,0,.84.364,4.416,4.416,0,0,0,1.176.14,2.8,2.8,0,0,0,2.226-.952A4.258,4.258,0,0,0,50.9-6.776a4.227,4.227,0,0,0-.8-2.856A2.726,2.726,0,0,0,47.964-10.528Zm21.9-6.44a3.407,3.407,0,0,1,.308.728,3.272,3.272,0,0,1,.14.98,1.992,1.992,0,0,1-.406,1.372,1.452,1.452,0,0,1-1.134.448H62.552v3.668h6.356a5.44,5.44,0,0,1,.322.728,2.843,2.843,0,0,1,.154.98,1.893,1.893,0,0,1-.42,1.358,1.487,1.487,0,0,1-1.12.434H62.608V-.028a6.6,6.6,0,0,1-.868.154A9.484,9.484,0,0,1,60.564.2,2.847,2.847,0,0,1,58.73-.252a2.076,2.076,0,0,1-.518-1.624V-14.644a2.289,2.289,0,0,1,.63-1.694,2.289,2.289,0,0,1,1.694-.63ZM76.776-.028a5.512,5.512,0,0,1-.784.154,8.184,8.184,0,0,1-1.12.07A3.089,3.089,0,0,1,73.066-.21a1.877,1.877,0,0,1-.546-1.582V-13.3a6.727,6.727,0,0,1,.784-.168,6.842,6.842,0,0,1,1.12-.084,3.008,3.008,0,0,1,1.806.42,1.921,1.921,0,0,1,.546,1.6Zm-4.508-17.3a2.236,2.236,0,0,1,.658-1.624,2.3,2.3,0,0,1,1.722-.672,2.3,2.3,0,0,1,1.722.672,2.236,2.236,0,0,1,.658,1.624,2.27,2.27,0,0,1-.658,1.652,2.3,2.3,0,0,1-1.722.672,2.3,2.3,0,0,1-1.722-.672A2.27,2.27,0,0,1,72.268-17.332Zm14.224,3.444a7.236,7.236,0,0,1,1.218.1,6.385,6.385,0,0,1,1.05.266v-4.7q.308-.084.812-.168a6.841,6.841,0,0,1,1.12-.084,3.008,3.008,0,0,1,1.806.42,1.921,1.921,0,0,1,.546,1.6V-2.828a2.151,2.151,0,0,1-.28,1.134,2.731,2.731,0,0,1-.9.854,9.434,9.434,0,0,1-2.016.868A9.328,9.328,0,0,1,87.024.42a8.146,8.146,0,0,1-5.558-1.778,6.715,6.715,0,0,1-2.03-5.334,8.46,8.46,0,0,1,.546-3.192,6.259,6.259,0,0,1,1.5-2.24,6.036,6.036,0,0,1,2.24-1.33A8.627,8.627,0,0,1,86.492-13.888Zm2.3,3.78a5.688,5.688,0,0,0-.8-.294,3.248,3.248,0,0,0-.91-.126,3.2,3.2,0,0,0-2.408.924,4.1,4.1,0,0,0-.9,2.94A3.934,3.934,0,0,0,84.63-3.85,3.14,3.14,0,0,0,87-2.968a4,4,0,0,0,1.05-.126,2.988,2.988,0,0,0,.742-.294ZM99.9-4.956a2.725,2.725,0,0,0,1.372,1.666,5.008,5.008,0,0,0,2.268.49,7.413,7.413,0,0,0,2.212-.322,7.615,7.615,0,0,0,1.68-.714,2.373,2.373,0,0,1,.7.728,1.813,1.813,0,0,1,.28.98,1.708,1.708,0,0,1-.392,1.12,3.04,3.04,0,0,1-1.078.8,6.179,6.179,0,0,1-1.624.476,12.739,12.739,0,0,1-2.058.154,9.688,9.688,0,0,1-3.052-.462A6.654,6.654,0,0,1,97.8-1.414,6.293,6.293,0,0,1,96.222-3.7a8.3,8.3,0,0,1-.574-3.22,7.73,7.73,0,0,1,.574-3.108,6.24,6.24,0,0,1,1.54-2.184,6.1,6.1,0,0,1,2.212-1.274,8.218,8.218,0,0,1,2.562-.406,7.59,7.59,0,0,1,2.618.434,6.045,6.045,0,0,1,2.044,1.218,5.5,5.5,0,0,1,1.33,1.876A5.891,5.891,0,0,1,109-7.98a1.761,1.761,0,0,1-.476,1.344,2.489,2.489,0,0,1-1.344.588Zm2.66-5.768a2.826,2.826,0,0,0-2,.742,3.247,3.247,0,0,0-.938,2.142l5.348-.868a2.28,2.28,0,0,0-.644-1.372A2.271,2.271,0,0,0,102.564-10.724ZM113.988.2a3.089,3.089,0,0,1-1.806-.406,1.877,1.877,0,0,1-.546-1.582V-18.228a6.65,6.65,0,0,1,.8-.168,7.1,7.1,0,0,1,1.134-.084,3.017,3.017,0,0,1,1.792.42,1.894,1.894,0,0,1,.56,1.6V-.028a6.71,6.71,0,0,1-.812.154A8.184,8.184,0,0,1,113.988.2Zm9.632-.224a5.512,5.512,0,0,1-.784.154,8.184,8.184,0,0,1-1.12.07A3.089,3.089,0,0,1,119.91-.21a1.877,1.877,0,0,1-.546-1.582V-13.3a6.727,6.727,0,0,1,.784-.168,6.842,6.842,0,0,1,1.12-.084,3.008,3.008,0,0,1,1.806.42,1.921,1.921,0,0,1,.546,1.6Zm-4.508-17.3a2.236,2.236,0,0,1,.658-1.624,2.3,2.3,0,0,1,1.722-.672,2.3,2.3,0,0,1,1.722.672,2.236,2.236,0,0,1,.658,1.624,2.27,2.27,0,0,1-.658,1.652,2.3,2.3,0,0,1-1.722.672,2.3,2.3,0,0,1-1.722-.672A2.27,2.27,0,0,1,119.112-17.332ZM127.2,0a2.919,2.919,0,0,1-.63-.84,2.346,2.346,0,0,1-.238-1.064,2.311,2.311,0,0,1,.238-1.022,4.84,4.84,0,0,1,.6-.938l5.264-6.272H126.9a6.472,6.472,0,0,1-.294-.714,2.785,2.785,0,0,1-.154-.938,1.732,1.732,0,0,1,.406-1.288,1.449,1.449,0,0,1,1.05-.392h8.848a3.147,3.147,0,0,1,.644.84,2.3,2.3,0,0,1,.252,1.092,2.254,2.254,0,0,1-.238.994,4.841,4.841,0,0,1-.6.938l-5.18,6.3h5.88a2.776,2.776,0,0,1,.308.7,3.08,3.08,0,0,1,.14.924,1.732,1.732,0,0,1-.406,1.288A1.449,1.449,0,0,1,136.5,0Zm18.7-2.716a5.93,5.93,0,0,0,1.218-.126,2.812,2.812,0,0,0,.91-.322V-5.74l-2.3.2a3.476,3.476,0,0,0-1.442.406,1.051,1.051,0,0,0-.546.966,1.276,1.276,0,0,0,.5,1.064A2.721,2.721,0,0,0,145.908-2.716Zm-.168-11.172a11.04,11.04,0,0,1,2.646.294,5.707,5.707,0,0,1,2.03.91,4.172,4.172,0,0,1,1.3,1.568,5.079,5.079,0,0,1,.462,2.24v6.328a1.707,1.707,0,0,1-.378,1.162,3.559,3.559,0,0,1-.91.742,6.935,6.935,0,0,1-2.128.812,13.222,13.222,0,0,1-2.856.28,8.358,8.358,0,0,1-4.592-1.106,3.743,3.743,0,0,1-1.708-3.374,3.7,3.7,0,0,1,1.148-2.94,6.284,6.284,0,0,1,3.528-1.26l3.724-.392v-.308a1.412,1.412,0,0,0-.728-1.316,4.261,4.261,0,0,0-2.1-.42,8.681,8.681,0,0,0-2.086.252,12.862,12.862,0,0,0-1.834.588,1.776,1.776,0,0,1-.574-.686,2.139,2.139,0,0,1-.238-.994,1.821,1.821,0,0,1,1.288-1.764,8.894,8.894,0,0,1,1.89-.462A14.939,14.939,0,0,1,145.74-13.888ZM162.652-10.5a3.7,3.7,0,0,0-2.576.966,3.645,3.645,0,0,0-1.064,2.842,3.588,3.588,0,0,0,1.022,2.8,3.715,3.715,0,0,0,2.59.924,4.82,4.82,0,0,0,1.582-.238,8.381,8.381,0,0,0,1.162-.49,3.183,3.183,0,0,1,.742.77,1.775,1.775,0,0,1,.266.994,1.927,1.927,0,0,1-1.12,1.708,6.267,6.267,0,0,1-3.108.644,9.929,9.929,0,0,1-3.066-.448,6.344,6.344,0,0,1-2.366-1.344A5.967,5.967,0,0,1,155.2-3.6a8.294,8.294,0,0,1-.532-3.094,7.845,7.845,0,0,1,.588-3.164,6.355,6.355,0,0,1,1.6-2.24,6.671,6.671,0,0,1,2.352-1.344,8.884,8.884,0,0,1,2.828-.448,5.652,5.652,0,0,1,3.038.7,2.051,2.051,0,0,1,1.106,1.764,1.842,1.842,0,0,1-.238.924,2.955,2.955,0,0,1-.574.728,6.808,6.808,0,0,0-1.19-.5A4.9,4.9,0,0,0,162.652-10.5ZM173.32-.028a5.512,5.512,0,0,1-.784.154,8.184,8.184,0,0,1-1.12.07A3.089,3.089,0,0,1,169.61-.21a1.877,1.877,0,0,1-.546-1.582V-13.3a6.727,6.727,0,0,1,.784-.168,6.842,6.842,0,0,1,1.12-.084,3.008,3.008,0,0,1,1.806.42,1.921,1.921,0,0,1,.546,1.6Zm-4.508-17.3a2.236,2.236,0,0,1,.658-1.624,2.3,2.3,0,0,1,1.722-.672,2.3,2.3,0,0,1,1.722.672,2.236,2.236,0,0,1,.658,1.624,2.27,2.27,0,0,1-.658,1.652,2.3,2.3,0,0,1-1.722.672,2.3,2.3,0,0,1-1.722-.672A2.27,2.27,0,0,1,168.812-17.332ZM190.288-6.748a8.362,8.362,0,0,1-.5,2.982,6.2,6.2,0,0,1-1.442,2.254,6.458,6.458,0,0,1-2.254,1.428,8.164,8.164,0,0,1-2.94.5,8.491,8.491,0,0,1-2.954-.49,6.274,6.274,0,0,1-2.268-1.414,6.2,6.2,0,0,1-1.442-2.254,8.447,8.447,0,0,1-.5-3.01A8.078,8.078,0,0,1,176.5-9.7a6.351,6.351,0,0,1,1.456-2.254,6.433,6.433,0,0,1,2.268-1.428,8.2,8.2,0,0,1,2.926-.5,8.082,8.082,0,0,1,2.912.5,6.358,6.358,0,0,1,2.254,1.442,6.521,6.521,0,0,1,1.456,2.254A7.967,7.967,0,0,1,190.288-6.748Zm-7.14-3.78a2.4,2.4,0,0,0-2.044.98,4.632,4.632,0,0,0-.728,2.8,4.745,4.745,0,0,0,.714,2.842,2.4,2.4,0,0,0,2.058.966,2.39,2.39,0,0,0,2.058-.98,4.756,4.756,0,0,0,.714-2.828,4.643,4.643,0,0,0-.728-2.786A2.387,2.387,0,0,0,183.148-10.528Zm1.036-10.192a3.1,3.1,0,0,1,1.946.574,1.619,1.619,0,0,1,.658,1.274,1.778,1.778,0,0,1-.252.98,4.674,4.674,0,0,1-.868.924l-2.632,2.24a2.453,2.453,0,0,1-1.694-.518,1.54,1.54,0,0,1-.574-1.162,1.417,1.417,0,0,1,.126-.588,2.7,2.7,0,0,1,.49-.672ZM201.544-8.6a1.762,1.762,0,0,0-.588-1.456,2.418,2.418,0,0,0-1.568-.476,4.274,4.274,0,0,0-1.232.168,5.723,5.723,0,0,0-1.036.42V-.028a5.512,5.512,0,0,1-.784.154,8.184,8.184,0,0,1-1.12.07A3.16,3.16,0,0,1,193.4-.21a1.851,1.851,0,0,1-.56-1.582v-8.652a2.037,2.037,0,0,1,.308-1.176,3.4,3.4,0,0,1,.868-.84,7.269,7.269,0,0,1,2.31-1.036,11.668,11.668,0,0,1,3.122-.392,7.339,7.339,0,0,1,4.718,1.344,4.644,4.644,0,0,1,1.666,3.836v8.68a6.71,6.71,0,0,1-.812.154A8.184,8.184,0,0,1,203.9.2,3.089,3.089,0,0,1,202.09-.21a1.877,1.877,0,0,1-.546-1.582Z" transform="translate(-721.46 -1130.378)" fill="#01d19f"/>
  </g>
</svg>
