<?xml version="1.0" encoding="UTF-8"?>
<!-- Generator: Adobe Illustrator 24.0.0, SVG Export Plug-In . SVG Version: 6.00 Build 0)  -->
<svg version="1.1" id="Capa_1" xmlns="http://www.w3.org/2000/svg" xmlns:xlink="http://www.w3.org/1999/xlink" x="0px" y="0px" viewBox="0 0 549.2 241" style="enable-background:new 0 0 549.2 241;" xml:space="preserve">
<style type="text/css">
	.st0{fill:#FFFFFF;}
</style>
<g>
	<g>
		<path class="st0" d="M169.4,28.5v76.6c0,0.6-0.4,1-1,1h-11.6c-0.6,0-1-0.4-1-1V80.9H16.2v24.2c0,0.6-0.4,1-1,1H3.6    c-0.6,0-1-0.4-1-1V28.5c0-16.7,10.9-27.2,28.1-27.2h110.6C158.6,1.4,169.4,11.8,169.4,28.5z M155.8,68.3V28.5    c0-8.9-5.6-14.5-14.5-14.5H30.7c-8.9,0-14.5,5.6-14.5,14.5v39.8H155.8z"/>
		<path class="st0" d="M255.3,97l-37.8-77.4c-1.7-3.5-5.4-5.8-9.5-5.8c-5.8,0-9.5,2.9-9.5,7.8v83.6c0,0.6-0.4,1-1,1h-11.6    c-0.6,0-1-0.4-1-1V21.5c0-13.2,8.9-21.3,23.1-21.3c9.5,0,17.5,4.8,20.9,12l38.6,78.9c1.4,2.7,3.9,3.3,6.4,3.3    c3.1,0,5.4-1.2,6.4-3.3L318.9,12c3.7-7.4,11.8-12,20.9-12C354.1,0,363,8.3,363,21.5v83.6c0,0.6-0.4,1-1,1h-11.6c-0.6,0-1-0.4-1-1    V21.5c0-4.8-3.7-8-9.5-8c-4.1,0-7.4,1.7-8.7,4.5L292.6,97c-3.3,6.8-10.3,11.1-18.6,11.1C265.4,108,258.6,103.8,255.3,97z"/>
		<path class="st0" d="M404.1,14c-8.5,0-14,5-14,13.2v5.4c0,6.8,6.2,10.9,15.9,11.2l115.6,3.9c16.9,0.6,27.5,10.5,27.5,25.8v4.8    c0,17.1-10.5,27.7-27.3,27.7H405.6c-16.9,0-27.5-10.7-27.5-27.7V76c0-0.6,0.4-1,1-1h11.6c0.6,0,1,0.4,1,1v2.3    c0,9.5,5.4,15.3,14,15.3h116.2c8.5,0,13.8-5.6,13.8-14.5v-4.8c0-7.6-5.4-12.6-14-12.8L406,57.6c-18-0.6-29.5-10.3-29.5-25v-5.4    c0-15.9,10.7-25.8,27.5-25.8h116.2c16.9,0,27.3,9.9,27.3,25.8v1.7c0,0.6-0.6,1-1.2,1H535c-0.6,0-1-0.4-1-1v-1.7    c0-8.1-5.2-13.2-13.8-13.2H404.1z"/>
	</g>
	<g>
		<path class="st0" d="M116.9,163.3v74.6c0,0.8-0.4,1.2-1.2,1.2H98.1c-0.8,0-1.2-0.4-1.2-1.2v-11.2l-54.5,11.6    c-6.8,1.7-11,2.7-14.9,2.7C10.7,241,0,230.1,0,212.7v-9.5c0-15.7,11.6-26.9,27.9-26.9h67.6v-13c0-6.6-4.1-10.7-10.7-10.7H34.3    c-6.6,0-10.7,4.1-10.7,10.7v2.1c0,0.8-0.4,1.2-1.2,1.2h-19c-0.8,0-1.2-0.4-1.2-1.2v-2.1c0-18.4,12.4-30,32-30h50.6    C104.5,133.2,116.9,144.9,116.9,163.3z M95.6,205.9v-10.3H28.9c-4.5,0-7.6,3.1-7.6,7.6v9.9c0,4.8,2.7,8.1,7,8.1    c1.9,0,7.9-1,12-1.9L95.6,205.9z"/>
		<path class="st0" d="M129.3,161.3c0-17.6,12.2-28.5,31.8-28.5h23.8c19.2,0,31.4,11,31.4,28.9v2.3c0,0.8-0.4,1.2-1.2,1.2h-19.6    c-0.8,0-1.2-0.4-1.2-1.2v-2.3c0-5.8-4.1-9.5-10.3-9.5h-22.3c-6.6,0-11.2,3.5-11.2,8.9v3.7c0,3.5,3.1,5.6,9.7,7.9l42.3,10.5    c10.5,3.7,15.5,11.8,15.5,24.8v3.5c0,18-12,29.3-31,29.3h-24.4c-20,0-32.4-11.2-32.4-29.1v-4.5c0-0.8,0.4-1.2,1.2-1.2h19.8    c0.8,0,1.2,0.4,1.2,1.2v4.5c0,5.6,4.3,9.5,11,9.5h22.3c6.2,0,10.9-3.7,10.9-9.1v-3.9c0-3.3-2.3-5.2-5.6-6.2l-42.3-10.7    c-13.8-4.8-19.4-12.2-19.4-26.4V161.3z"/>
		<path class="st0" d="M232.9,237.5V135.8c0-1,0.4-1.4,1.4-1.4h18.6c1,0,1.4,0.4,1.4,1.4v101.8c0,1-0.4,1.6-1.6,1.6h-18.2    C233.5,239.1,232.9,238.5,232.9,237.5z"/>
		<path class="st0" d="M338,207.5v3.5c0,18.4-12.4,30-32,30h-3.9c-19.6,0-32-11.6-32-30v-48.5c0-18.4,12.4-30,32-30h3.9    c19.6,0,32,11.6,32,30v1c0,0.8-0.6,1.4-1.4,1.4h-18.6c-0.8,0-1.4-0.6-1.4-1.4v-1c0-6.6-4.1-10.7-10.7-10.7h-3.9    c-6.6,0-10.7,4.1-10.7,10.7V211c0,6.6,4.1,10.7,10.7,10.7h3.9c6.6,0,10.7-4.1,10.7-10.7v-3.5c0-0.8,0.6-1.4,1.4-1.4h18.6    C337.4,206.1,338,206.7,338,207.5z"/>
		<path class="st0" d="M380.7,132.5h3.9c19.6,0,32,11.6,32,30V211c0,18.4-12.4,30-32,30h-3.9c-19.6,0-32-11.6-32-30v-48.5    C348.7,144.1,361.1,132.5,380.7,132.5z M380.7,221.6h3.9c6.6,0,10.7-4.1,10.7-10.7v-48.5c0-6.6-4.1-10.7-10.7-10.7h-3.9    c-6.6,0-10.7,4.1-10.7,10.7V211C370,217.5,374.1,221.6,380.7,221.6z"/>
		<path class="st0" d="M430.1,237.7v-83c0-13.6,9.1-21.9,24.2-21.9c12,0,20.4,7.2,22.1,18.6l10.3,68c0.2,1.4,1.2,2.1,2.3,2.1    c1.6,0,2.5-0.8,2.7-2.1l10.3-68c1.7-11.4,10.1-18.6,22.1-18.6c15.1,0,24.2,8.3,24.2,21.9v83c0,0.8-0.6,1.4-1.4,1.4h-18.6    c-0.8,0-1.4-0.6-1.4-1.4v-83c0-1.6-1.2-2.5-2.9-2.5c-1.6,0-2.7,0.8-2.9,2.1l-10.3,68c-1.6,11.4-10.1,18.6-21.9,18.6    c-11.6,0-20-7.4-21.5-18.6l-10.3-68c-0.2-1.4-1.2-2.1-2.9-2.1s-2.9,1-2.9,2.5v83c0,0.8-0.6,1.4-1.4,1.4h-18.6    C430.7,239.1,430.1,238.5,430.1,237.7z"/>
	</g>
</g>
</svg>