<svg xmlns="http://www.w3.org/2000/svg" width="17.507" height="17.532" viewBox="0 0 17.507 17.532">
  <g id="telefono" transform="translate(-0.109 0)">
    <g id="Grupo_80" data-name="Grupo 80" transform="translate(0.109 0)">
      <path id="Trazado_92" data-name="Trazado 92" d="M13.952,18.523a1.724,1.724,0,0,0-1.251-.574,1.783,1.783,0,0,0-1.265.57l-1.169,1.166c-.1-.052-.192-.1-.285-.148-.133-.067-.259-.129-.366-.2A12.706,12.706,0,0,1,6.57,16.565a7.49,7.49,0,0,1-1-1.576c.3-.277.585-.566.858-.844.1-.1.207-.211.311-.315a1.7,1.7,0,0,0,0-2.561L5.73,10.26c-.115-.115-.233-.233-.344-.351-.222-.229-.455-.466-.7-.688a1.752,1.752,0,0,0-1.24-.544,1.813,1.813,0,0,0-1.258.544l-.007.007L.927,10.5a2.708,2.708,0,0,0-.8,1.721A6.488,6.488,0,0,0,.6,14.963a15.934,15.934,0,0,0,2.831,4.722,17.414,17.414,0,0,0,5.8,4.54,9.033,9.033,0,0,0,3.256.962c.078,0,.159.007.233.007a2.788,2.788,0,0,0,2.135-.918c0-.007.011-.011.015-.018a8.4,8.4,0,0,1,.648-.67c.159-.152.322-.311.481-.477a1.846,1.846,0,0,0,.559-1.28,1.779,1.779,0,0,0-.57-1.269Zm1.325,3.9s0,0,0,0c-.144.155-.292.3-.451.452a9.711,9.711,0,0,0-.714.74,1.784,1.784,0,0,1-1.391.588c-.056,0-.115,0-.17,0a8.026,8.026,0,0,1-2.886-.866A16.439,16.439,0,0,1,4.2,19.052a15.019,15.019,0,0,1-2.664-4.437A5.285,5.285,0,0,1,1.123,12.3a1.7,1.7,0,0,1,.511-1.1L2.9,9.938a.841.841,0,0,1,.562-.263A.791.791,0,0,1,4,9.934l.011.011c.226.211.44.429.666.662.115.118.233.237.352.359l1.01,1.01a.706.706,0,0,1,0,1.147c-.107.107-.211.215-.318.318-.311.318-.607.614-.929.9-.007.007-.015.011-.018.018a.755.755,0,0,0-.192.84l.011.033a8.115,8.115,0,0,0,1.2,1.95l0,0a13.579,13.579,0,0,0,3.286,2.99,5.055,5.055,0,0,0,.455.248c.133.067.259.13.366.2.015.007.03.018.044.026a.8.8,0,0,0,.366.093.791.791,0,0,0,.563-.255l1.265-1.265a.837.837,0,0,1,.559-.277.753.753,0,0,1,.533.27l.007.007,2.039,2.039A.732.732,0,0,1,15.277,22.419Z" transform="translate(-0.109 -7.662)" fill="#01d19d"/>
      <path id="Trazado_93" data-name="Trazado 93" d="M77.957,28.193a4.762,4.762,0,0,1,3.878,3.878.5.5,0,0,0,.492.414.672.672,0,0,0,.085-.007.5.5,0,0,0,.411-.577,5.758,5.758,0,0,0-4.692-4.692.5.5,0,0,0-.577.407A.494.494,0,0,0,77.957,28.193Z" transform="translate(-68.495 -24.022)" fill="#01d19d"/>
      <path id="Trazado_94" data-name="Trazado 94" d="M87.066,7.734A9.482,9.482,0,0,0,79.34.007a.5.5,0,1,0-.163.984,8.469,8.469,0,0,1,6.9,6.9.5.5,0,0,0,.492.414.677.677,0,0,0,.085-.007A.49.49,0,0,0,87.066,7.734Z" transform="translate(-69.567 0)" fill="#01d19d"/>
    </g>
  </g>
</svg>
