<?xml version="1.0" encoding="utf-8"?>
<!-- Generator: Adobe Illustrator 25.0.0, SVG Export Plug-In . SVG Version: 6.00 Build 0)  -->
<svg version="1.1" id="Capa_1" xmlns="http://www.w3.org/2000/svg" xmlns:xlink="http://www.w3.org/1999/xlink" x="0px" y="0px"
	 viewBox="0 0 35 35" style="enable-background:new 0 0 35 35;" xml:space="preserve">
<style type="text/css">
	.st0{fill:#FFFFFF;}
	.st1{enable-background:new    ;}
	.st2{fill:#01D19D;}
</style>
<g>
	<circle class="st0" cx="17.5" cy="17.5" r="17.5"/>
	<g class="st1">
		<path class="st2" d="M24.6,13.7c0,0.2,0,0.3,0,0.5c0,4.8-3.6,10.3-10.3,10.3c-2,0-3.9-0.6-5.5-1.6c0.3,0,0.6,0,0.9,0
			c1.7,0,3.2-0.6,4.5-1.5c-1.6,0-2.9-1.1-3.4-2.5c0.2,0,0.4,0.1,0.7,0.1c0.3,0,0.6,0,0.9-0.1c-1.7-0.3-2.9-1.8-2.9-3.5l0,0
			c0.5,0.3,1,0.4,1.6,0.5c-1-0.6-1.6-1.8-1.6-3c0-0.7,0.2-1.3,0.5-1.8c1.8,2.2,4.4,3.6,7.4,3.8c-0.1-0.3-0.1-0.5-0.1-0.8
			c0-2,1.6-3.6,3.6-3.6c1,0,2,0.4,2.6,1.1c0.8-0.2,1.6-0.5,2.3-0.9c-0.3,0.8-0.8,1.5-1.6,2c0.7-0.1,1.4-0.3,2.1-0.6
			C25.9,12.5,25.3,13.2,24.6,13.7z"/>
	</g>
</g>
</svg>
