<svg xmlns="http://www.w3.org/2000/svg" width="10.465" height="14.883" viewBox="0 0 10.465 14.883">
  <g id="ubicacion" transform="translate(-22.266)">
    <g id="Grupo_82" data-name="Grupo 82" transform="translate(22.266)">
      <g id="Grupo_81" data-name="Grupo 81">
        <path id="Trazado_95" data-name="Trazado 95" d="M27.5,0a5.233,5.233,0,0,0-4.451,7.984L27.2,14.677a.436.436,0,0,0,.37.206h0a.436.436,0,0,0,.37-.212l4.048-6.758A5.233,5.233,0,0,0,27.5,0Zm3.746,7.465-3.68,6.144L23.788,7.524a4.363,4.363,0,1,1,7.456-.059Z" transform="translate(-22.266)" fill="#01d19d"/>
      </g>
    </g>
    <g id="Grupo_84" data-name="Grupo 84" transform="translate(24.882 2.616)">
      <g id="Grupo_83" data-name="Grupo 83">
        <path id="Trazado_96" data-name="Trazado 96" d="M51.249,26.367a2.616,2.616,0,1,0,2.616,2.616A2.619,2.619,0,0,0,51.249,26.367Zm0,4.366A1.75,1.75,0,1,1,53,28.983,1.751,1.751,0,0,1,51.249,30.733Z" transform="translate(-48.633 -26.367)" fill="#01d19d"/>
      </g>
    </g>
  </g>
</svg>
