<?xml version="1.0" encoding="utf-8"?>
<!-- Generator: Adobe Illustrator 25.0.0, SVG Export Plug-In . SVG Version: 6.00 Build 0)  -->
<svg version="1.1" id="Capa_1" xmlns="http://www.w3.org/2000/svg" xmlns:xlink="http://www.w3.org/1999/xlink" x="0px" y="0px"
	 viewBox="0 0 35 35" style="enable-background:new 0 0 35 35;" xml:space="preserve">
<style type="text/css">
	.st0{fill:#FFFFFF;}
	.st1{enable-background:new    ;}
	.st2{fill:#01D19D;}
</style>
<g>
	<path id="Sin_título-1_copia" class="st0" d="M33.1,25.5c-4.4,8.6-14.9,12-23.6,7.6s-12-14.9-7.6-23.5s14.9-12,23.6-7.6
		S37.5,16.8,33.1,25.5z"/>
	<g class="st1">
		<path class="st2" d="M25.5,25.6c-0.2,0.9-0.9,1.5-1.8,1.6c-2.1,0.2-4.1,0.2-6.2,0.2s-4.1,0-6.2-0.2c-0.9-0.1-1.6-0.7-1.8-1.6
			c-0.3-1.2-0.3-2.6-0.3-3.9s0-2.7,0.3-3.9c0.2-0.9,0.9-1.5,1.8-1.6c2-0.2,4.1-0.2,6.2-0.2s4.1,0,6.2,0.2c0.9,0.1,1.6,0.7,1.8,1.6
			c0.3,1.2,0.3,2.6,0.3,3.9S25.8,24.4,25.5,25.6z M14,18.9v-1h-3.5v1h1.2v6.3h1.1V19C12.8,19,14,19,14,18.9z M15.8,7.5L14.5,12v3
			h-1.1v-3c-0.1-0.5-0.3-1.3-0.7-2.4c-0.2-0.7-0.5-1.4-0.7-2.1h1.1l0.8,2.9l0.8-2.9C14.7,7.5,15.8,7.5,15.8,7.5z M17,25.3v-5.5h-1
			V24c-0.2,0.3-0.4,0.5-0.6,0.5c-0.1,0-0.2-0.1-0.2-0.2c0,0,0-0.2,0-0.4v-4.1h-1v4.4c0,0.4,0,0.6,0.1,0.8c0.1,0.3,0.3,0.4,0.6,0.4
			c0.4,0,0.7-0.2,1.1-0.7v0.6C16,25.3,17,25.3,17,25.3z M18.8,13.1c0,0.6-0.1,1-0.3,1.3c-0.3,0.4-0.7,0.6-1.2,0.6s-0.9-0.2-1.2-0.6
			c-0.2-0.3-0.3-0.7-0.3-1.3v-2c0-0.6,0.1-1,0.3-1.3c0.3-0.4,0.7-0.6,1.2-0.6s0.9,0.2,1.2,0.6c0.2,0.3,0.3,0.7,0.3,1.3V13.1z
			 M17.8,11c0-0.5-0.1-0.8-0.5-0.8c-0.3,0-0.5,0.3-0.5,0.8v2.3c0,0.5,0.2,0.8,0.5,0.8s0.5-0.3,0.5-0.8V11z M20.8,21.4
			c0-0.5,0-0.9-0.1-1.1c-0.1-0.4-0.4-0.6-0.8-0.6s-0.7,0.2-1,0.6v-2.4h-1v7.4h1v-0.5c0.3,0.4,0.7,0.6,1,0.6c0.4,0,0.7-0.2,0.8-0.6
			c0.1-0.2,0.1-0.6,0.1-1.1V21.4z M19.8,23.8c0,0.5-0.1,0.7-0.4,0.7c-0.2,0-0.3-0.1-0.5-0.2v-3.4c0.2-0.2,0.3-0.2,0.5-0.2
			c0.3,0,0.4,0.3,0.4,0.7V23.8z M22.5,14.9h-1v-0.6c-0.4,0.5-0.8,0.7-1.2,0.7c-0.3,0-0.6-0.1-0.7-0.4c-0.1-0.2-0.1-0.4-0.1-0.8V9.4
			h1v4.1c0,0.2,0,0.4,0,0.4c0,0.2,0.1,0.2,0.2,0.2c0.2,0,0.4-0.2,0.6-0.5V9.4h1v5.5H22.5z M24.5,23.4h-1c0,0.4,0,0.6,0,0.7
			c-0.1,0.3-0.2,0.4-0.4,0.4c-0.3,0-0.5-0.3-0.5-0.8v-1h2v-1.1c0-0.6-0.1-1-0.3-1.3c-0.3-0.4-0.7-0.6-1.2-0.6s-0.9,0.2-1.2,0.6
			c-0.2,0.3-0.3,0.7-0.3,1.3v1.9c0,0.6,0.1,1,0.3,1.3c0.3,0.4,0.7,0.6,1.2,0.6s0.9-0.2,1.2-0.6c0.1-0.2,0.2-0.4,0.2-0.6
			c0-0.1,0-0.3,0-0.6C24.5,23.6,24.5,23.4,24.5,23.4z M23.5,21.9h-1v-0.5c0-0.5,0.2-0.8,0.5-0.8s0.5,0.3,0.5,0.8V21.9z"/>
	</g>
</g>
</svg>
